# xmcd
#
# Track frame offsets:
#	150
#	17705
#	55172
#
# Disc length: 1081 seconds
# Revision: 3
# Processed by: cddbd v1.5.2PL0 Copyright (c) Steve Scherf et al.
# Submitted via: dBpowerAMP V12.0
#
DISCID=1c043703
DTITLE=Phats and Small - Harvest For The World [Single Part 2]
DYEAR=2000
DGENRE=House
TTITLE0=Harvest For The World [Radio Mix]
TTITLE1=Harvest For The World [Mutant Disco Mix]
TTITLE2=Brighton Beach
EXTD=
EXTT0=
EXTT1=
EXTT2=
PLAYORDER=
